<?xml version="1.0" encoding="UTF-8" standalone="no"?>
<!DOCTYPE svg PUBLIC "-//W3C//DTD SVG 1.1//EN"
 "http://www.w3.org/Graphics/SVG/1.1/DTD/svg11.dtd">
<!-- Generated by graphviz version 2.40.1 (20161225.0304)
 -->
<!-- Title: dependencies Pages: 1 -->
<svg width="1313pt" height="211pt"
 viewBox="0.00 0.00 1313.00 211.00" xmlns="http://www.w3.org/2000/svg" xmlns:xlink="http://www.w3.org/1999/xlink">
<g id="graph0" class="graph" transform="scale(1 1) rotate(0) translate(4 207)">
<title>dependencies</title>
<polygon fill="#ffffff" stroke="transparent" points="-4,4 -4,-207 1309,-207 1309,4 -4,4"/>
<text text-anchor="start" x="631.5091" y="-42.4" font-family="sans-serif" font-weight="bold" font-size="14.00" fill="#000000">Legend</text>
<polygon fill="#ffffb3" stroke="transparent" points="418.5,-10 418.5,-30 438.5,-30 438.5,-10 418.5,-10"/>
<text text-anchor="start" x="442.129" y="-15.4" font-family="sans-serif" font-size="14.00" fill="#000000"> &#160;Declarations</text>
<polygon fill="#8dd3c7" stroke="transparent" points="531.5,-10 531.5,-30 551.5,-30 551.5,-10 531.5,-10"/>
<text text-anchor="start" x="555.2251" y="-15.4" font-family="sans-serif" font-size="14.00" fill="#000000"> &#160;Module</text>
<polygon fill="#80b1d3" stroke="transparent" points="617.5,-10 617.5,-30 637.5,-30 637.5,-10 617.5,-10"/>
<text text-anchor="start" x="641.2812" y="-15.4" font-family="sans-serif" font-size="14.00" fill="#000000"> &#160;Bootstrap</text>
<polygon fill="#fdb462" stroke="transparent" points="714.5,-10 714.5,-30 734.5,-30 734.5,-10 714.5,-10"/>
<text text-anchor="start" x="738.1732" y="-15.4" font-family="sans-serif" font-size="14.00" fill="#000000"> &#160;Providers</text>
<polygon fill="#fb8072" stroke="transparent" points="810.5,-10 810.5,-30 830.5,-30 830.5,-10 810.5,-10"/>
<text text-anchor="start" x="834.2258" y="-15.4" font-family="sans-serif" font-size="14.00" fill="#000000"> &#160;Exports</text>
<g id="clust1" class="cluster">
<title>cluster_CandidatesModule</title>
<polygon fill="none" stroke="#000000" stroke-dasharray="1,5" points="8,-70 8,-195 1297,-195 1297,-70 8,-70"/>
</g>
<g id="clust2" class="cluster">
<title>cluster_CandidatesModule_declarations</title>
<polygon fill="none" stroke="#000000" points="429,-78 429,-130 1289,-130 1289,-78 429,-78"/>
</g>
<g id="clust8" class="cluster">
<title>cluster_CandidatesModule_imports</title>
<polygon fill="none" stroke="#000000" points="16,-78 16,-130 421,-130 421,-78 16,-78"/>
</g>
<!-- CandidateAddEditFormComponent -->
<g id="node1" class="node">
<title>CandidateAddEditFormComponent</title>
<polygon fill="#ffffb3" stroke="#000000" points="1280.8682,-122 1065.1318,-122 1065.1318,-86 1280.8682,-86 1280.8682,-122"/>
<text text-anchor="middle" x="1173" y="-99.8" font-family="Times,serif" font-size="14.00" fill="#000000">CandidateAddEditFormComponent</text>
</g>
<!-- CandidatesModule -->
<g id="node6" class="node">
<title>CandidatesModule</title>
<polygon fill="#8dd3c7" stroke="#000000" points="601.7562,-187 598.7562,-191 577.7562,-191 574.7562,-187 480.2438,-187 480.2438,-151 601.7562,-151 601.7562,-187"/>
<text text-anchor="middle" x="541" y="-164.8" font-family="Times,serif" font-size="14.00" fill="#000000">CandidatesModule</text>
</g>
<!-- CandidateAddEditFormComponent&#45;&gt;CandidatesModule -->
<g id="edge1" class="edge">
<title>CandidateAddEditFormComponent&#45;&gt;CandidatesModule</title>
<path fill="none" stroke="#000000" d="M1173,-122.2921C1173,-144.2057 1173,-178 1173,-178 1173,-178 611.8857,-178 611.8857,-178"/>
<polygon fill="#000000" stroke="#000000" points="611.8857,-174.5001 601.8857,-178 611.8856,-181.5001 611.8857,-174.5001"/>
</g>
<!-- CandidateScreenComponent -->
<g id="node2" class="node">
<title>CandidateScreenComponent</title>
<polygon fill="#ffffb3" stroke="#000000" points="1047.1811,-122 870.8189,-122 870.8189,-86 1047.1811,-86 1047.1811,-122"/>
<text text-anchor="middle" x="959" y="-99.8" font-family="Times,serif" font-size="14.00" fill="#000000">CandidateScreenComponent</text>
</g>
<!-- CandidateScreenComponent&#45;&gt;CandidatesModule -->
<g id="edge2" class="edge">
<title>CandidateScreenComponent&#45;&gt;CandidatesModule</title>
<path fill="none" stroke="#000000" d="M959,-122.1061C959,-141.3391 959,-169 959,-169 959,-169 611.7808,-169 611.7808,-169"/>
<polygon fill="#000000" stroke="#000000" points="611.7808,-165.5001 601.7808,-169 611.7808,-172.5001 611.7808,-165.5001"/>
</g>
<!-- CandidatesComponent -->
<g id="node3" class="node">
<title>CandidatesComponent</title>
<polygon fill="#ffffb3" stroke="#000000" points="852.5393,-122 709.4607,-122 709.4607,-86 852.5393,-86 852.5393,-122"/>
<text text-anchor="middle" x="781" y="-99.8" font-family="Times,serif" font-size="14.00" fill="#000000">CandidatesComponent</text>
</g>
<!-- CandidatesComponent&#45;&gt;CandidatesModule -->
<g id="edge3" class="edge">
<title>CandidatesComponent&#45;&gt;CandidatesModule</title>
<path fill="none" stroke="#000000" d="M781,-122.027C781,-138.3976 781,-160 781,-160 781,-160 611.8724,-160 611.8724,-160"/>
<polygon fill="#000000" stroke="#000000" points="611.8724,-156.5001 601.8724,-160 611.8724,-163.5001 611.8724,-156.5001"/>
</g>
<!-- CandidatesListComponent -->
<g id="node4" class="node">
<title>CandidatesListComponent</title>
<polygon fill="#ffffb3" stroke="#000000" points="691.8173,-122 526.1827,-122 526.1827,-86 691.8173,-86 691.8173,-122"/>
<text text-anchor="middle" x="609" y="-99.8" font-family="Times,serif" font-size="14.00" fill="#000000">CandidatesListComponent</text>
</g>
<!-- CandidatesListComponent&#45;&gt;CandidatesModule -->
<g id="edge4" class="edge">
<title>CandidatesListComponent&#45;&gt;CandidatesModule</title>
<path fill="none" stroke="#000000" d="M564.1098,-122.1061C564.1098,-122.1061 564.1098,-140.991 564.1098,-140.991"/>
<polygon fill="#000000" stroke="#000000" points="560.6098,-140.9909 564.1098,-150.991 567.6098,-140.991 560.6098,-140.9909"/>
</g>
<!-- FilterPipe -->
<g id="node5" class="node">
<title>FilterPipe</title>
<polygon fill="#ffffb3" stroke="#000000" points="508.7177,-122 437.2823,-122 437.2823,-86 508.7177,-86 508.7177,-122"/>
<text text-anchor="middle" x="473" y="-99.8" font-family="Times,serif" font-size="14.00" fill="#000000">FilterPipe</text>
</g>
<!-- FilterPipe&#45;&gt;CandidatesModule -->
<g id="edge5" class="edge">
<title>FilterPipe&#45;&gt;CandidatesModule</title>
<path fill="none" stroke="#000000" d="M494.3654,-122.1061C494.3654,-122.1061 494.3654,-140.991 494.3654,-140.991"/>
<polygon fill="#000000" stroke="#000000" points="490.8654,-140.9909 494.3654,-150.991 497.8654,-140.991 490.8654,-140.9909"/>
</g>
<!-- CandidatesRoutingModule -->
<g id="node7" class="node">
<title>CandidatesRoutingModule</title>
<polygon fill="#8dd3c7" stroke="#000000" points="413.3738,-122 410.3738,-126 389.3738,-126 386.3738,-122 246.6262,-122 246.6262,-86 413.3738,-86 413.3738,-122"/>
<text text-anchor="middle" x="330" y="-99.8" font-family="Times,serif" font-size="14.00" fill="#000000">CandidatesRoutingModule</text>
</g>
<!-- CandidatesRoutingModule&#45;&gt;CandidatesModule -->
<g id="edge6" class="edge">
<title>CandidatesRoutingModule&#45;&gt;CandidatesModule</title>
<path fill="none" stroke="#000000" d="M330,-122.027C330,-138.3976 330,-160 330,-160 330,-160 469.9701,-160 469.9701,-160"/>
<polygon fill="#000000" stroke="#000000" points="469.9701,-163.5001 479.9701,-160 469.97,-156.5001 469.9701,-163.5001"/>
</g>
<!-- LayoutModule -->
<g id="node8" class="node">
<title>LayoutModule</title>
<polygon fill="#8dd3c7" stroke="#000000" points="228.7078,-122 225.7078,-126 204.7078,-126 201.7078,-122 129.2922,-122 129.2922,-86 228.7078,-86 228.7078,-122"/>
<text text-anchor="middle" x="179" y="-99.8" font-family="Times,serif" font-size="14.00" fill="#000000">LayoutModule</text>
</g>
<!-- LayoutModule&#45;&gt;CandidatesModule -->
<g id="edge7" class="edge">
<title>LayoutModule&#45;&gt;CandidatesModule</title>
<path fill="none" stroke="#000000" d="M179,-122.1061C179,-141.3391 179,-169 179,-169 179,-169 470.001,-169 470.001,-169"/>
<polygon fill="#000000" stroke="#000000" points="470.001,-172.5001 480.001,-169 470.0009,-165.5001 470.001,-172.5001"/>
</g>
<!-- MiscModule -->
<g id="node9" class="node">
<title>MiscModule</title>
<polygon fill="#8dd3c7" stroke="#000000" points="111.5454,-122 108.5454,-126 87.5454,-126 84.5454,-122 24.4546,-122 24.4546,-86 111.5454,-86 111.5454,-122"/>
<text text-anchor="middle" x="68" y="-99.8" font-family="Times,serif" font-size="14.00" fill="#000000">MiscModule</text>
</g>
<!-- MiscModule&#45;&gt;CandidatesModule -->
<g id="edge8" class="edge">
<title>MiscModule&#45;&gt;CandidatesModule</title>
<path fill="none" stroke="#000000" d="M68,-122.2921C68,-144.2057 68,-178 68,-178 68,-178 470.1318,-178 470.1318,-178"/>
<polygon fill="#000000" stroke="#000000" points="470.1319,-181.5001 480.1318,-178 470.1318,-174.5001 470.1319,-181.5001"/>
</g>
</g>
</svg>
