<?xml version="1.0" encoding="UTF-8" standalone="no"?>
<!DOCTYPE svg PUBLIC "-//W3C//DTD SVG 1.1//EN"
 "http://www.w3.org/Graphics/SVG/1.1/DTD/svg11.dtd">
<!-- Generated by graphviz version 2.40.1 (20161225.0304)
 -->
<!-- Title: dependencies Pages: 1 -->
<svg width="956pt" height="211pt"
 viewBox="0.00 0.00 956.00 211.00" xmlns="http://www.w3.org/2000/svg" xmlns:xlink="http://www.w3.org/1999/xlink">
<g id="graph0" class="graph" transform="scale(1 1) rotate(0) translate(4 207)">
<title>dependencies</title>
<polygon fill="#ffffff" stroke="transparent" points="-4,4 -4,-207 952,-207 952,4 -4,4"/>
<text text-anchor="start" x="453.0091" y="-42.4" font-family="sans-serif" font-weight="bold" font-size="14.00" fill="#000000">Legend</text>
<polygon fill="#ffffb3" stroke="transparent" points="240,-10 240,-30 260,-30 260,-10 240,-10"/>
<text text-anchor="start" x="263.629" y="-15.4" font-family="sans-serif" font-size="14.00" fill="#000000"> &#160;Declarations</text>
<polygon fill="#8dd3c7" stroke="transparent" points="353,-10 353,-30 373,-30 373,-10 353,-10"/>
<text text-anchor="start" x="376.7251" y="-15.4" font-family="sans-serif" font-size="14.00" fill="#000000"> &#160;Module</text>
<polygon fill="#80b1d3" stroke="transparent" points="439,-10 439,-30 459,-30 459,-10 439,-10"/>
<text text-anchor="start" x="462.7812" y="-15.4" font-family="sans-serif" font-size="14.00" fill="#000000"> &#160;Bootstrap</text>
<polygon fill="#fdb462" stroke="transparent" points="536,-10 536,-30 556,-30 556,-10 536,-10"/>
<text text-anchor="start" x="559.6732" y="-15.4" font-family="sans-serif" font-size="14.00" fill="#000000"> &#160;Providers</text>
<polygon fill="#fb8072" stroke="transparent" points="632,-10 632,-30 652,-30 652,-10 632,-10"/>
<text text-anchor="start" x="655.7258" y="-15.4" font-family="sans-serif" font-size="14.00" fill="#000000"> &#160;Exports</text>
<g id="clust1" class="cluster">
<title>cluster_ScreensModule</title>
<polygon fill="none" stroke="#000000" stroke-dasharray="1,5" points="8,-70 8,-195 940,-195 940,-70 8,-70"/>
</g>
<g id="clust2" class="cluster">
<title>cluster_ScreensModule_declarations</title>
<polygon fill="none" stroke="#000000" points="411,-78 411,-130 932,-130 932,-78 411,-78"/>
</g>
<g id="clust6" class="cluster">
<title>cluster_ScreensModule_imports</title>
<polygon fill="none" stroke="#000000" points="16,-78 16,-130 403,-130 403,-78 16,-78"/>
</g>
<!-- ScreenAddEditFormComponent -->
<g id="node1" class="node">
<title>ScreenAddEditFormComponent</title>
<polygon fill="#ffffb3" stroke="#000000" points="923.6937,-122 726.3063,-122 726.3063,-86 923.6937,-86 923.6937,-122"/>
<text text-anchor="middle" x="825" y="-99.8" font-family="Times,serif" font-size="14.00" fill="#000000">ScreenAddEditFormComponent</text>
</g>
<!-- ScreensModule -->
<g id="node4" class="node">
<title>ScreensModule</title>
<polygon fill="#8dd3c7" stroke="#000000" points="469.5814,-187 466.5814,-191 445.5814,-191 442.5814,-187 366.4186,-187 366.4186,-151 469.5814,-151 469.5814,-187"/>
<text text-anchor="middle" x="418" y="-164.8" font-family="Times,serif" font-size="14.00" fill="#000000">ScreensModule</text>
</g>
<!-- ScreenAddEditFormComponent&#45;&gt;ScreensModule -->
<g id="edge1" class="edge">
<title>ScreenAddEditFormComponent&#45;&gt;ScreensModule</title>
<path fill="none" stroke="#000000" d="M825,-122.2843C825,-143.3211 825,-175 825,-175 825,-175 479.5468,-175 479.5468,-175"/>
<polygon fill="#000000" stroke="#000000" points="479.5469,-171.5001 469.5468,-175 479.5468,-178.5001 479.5469,-171.5001"/>
</g>
<!-- ScreensComponent -->
<g id="node2" class="node">
<title>ScreensComponent</title>
<polygon fill="#ffffb3" stroke="#000000" points="708.3641,-122 583.6359,-122 583.6359,-86 708.3641,-86 708.3641,-122"/>
<text text-anchor="middle" x="646" y="-99.8" font-family="Times,serif" font-size="14.00" fill="#000000">ScreensComponent</text>
</g>
<!-- ScreensComponent&#45;&gt;ScreensModule -->
<g id="edge2" class="edge">
<title>ScreensComponent&#45;&gt;ScreensModule</title>
<path fill="none" stroke="#000000" d="M646,-122.0225C646,-139.3734 646,-163 646,-163 646,-163 479.7367,-163 479.7367,-163"/>
<polygon fill="#000000" stroke="#000000" points="479.7368,-159.5001 469.7367,-163 479.7367,-166.5001 479.7368,-159.5001"/>
</g>
<!-- ScreensListComponent -->
<g id="node3" class="node">
<title>ScreensListComponent</title>
<polygon fill="#ffffb3" stroke="#000000" points="565.1428,-122 418.8572,-122 418.8572,-86 565.1428,-86 565.1428,-122"/>
<text text-anchor="middle" x="492" y="-99.8" font-family="Times,serif" font-size="14.00" fill="#000000">ScreensListComponent</text>
</g>
<!-- ScreensListComponent&#45;&gt;ScreensModule -->
<g id="edge3" class="edge">
<title>ScreensListComponent&#45;&gt;ScreensModule</title>
<path fill="none" stroke="#000000" d="M444.1098,-122.1061C444.1098,-122.1061 444.1098,-140.991 444.1098,-140.991"/>
<polygon fill="#000000" stroke="#000000" points="440.6098,-140.9909 444.1098,-150.991 447.6098,-140.991 440.6098,-140.9909"/>
</g>
<!-- LayoutModule -->
<g id="node5" class="node">
<title>LayoutModule</title>
<polygon fill="#8dd3c7" stroke="#000000" points="394.7078,-122 391.7078,-126 370.7078,-126 367.7078,-122 295.2922,-122 295.2922,-86 394.7078,-86 394.7078,-122"/>
<text text-anchor="middle" x="345" y="-99.8" font-family="Times,serif" font-size="14.00" fill="#000000">LayoutModule</text>
</g>
<!-- LayoutModule&#45;&gt;ScreensModule -->
<g id="edge4" class="edge">
<title>LayoutModule&#45;&gt;ScreensModule</title>
<path fill="none" stroke="#000000" d="M380.5316,-122.1061C380.5316,-122.1061 380.5316,-140.991 380.5316,-140.991"/>
<polygon fill="#000000" stroke="#000000" points="377.0316,-140.9909 380.5316,-150.991 384.0316,-140.991 377.0316,-140.9909"/>
</g>
<!-- MiscModule -->
<g id="node6" class="node">
<title>MiscModule</title>
<polygon fill="#8dd3c7" stroke="#000000" points="277.5454,-122 274.5454,-126 253.5454,-126 250.5454,-122 190.4546,-122 190.4546,-86 277.5454,-86 277.5454,-122"/>
<text text-anchor="middle" x="234" y="-99.8" font-family="Times,serif" font-size="14.00" fill="#000000">MiscModule</text>
</g>
<!-- MiscModule&#45;&gt;ScreensModule -->
<g id="edge5" class="edge">
<title>MiscModule&#45;&gt;ScreensModule</title>
<path fill="none" stroke="#000000" d="M234,-122.0225C234,-139.3734 234,-163 234,-163 234,-163 356.2561,-163 356.2561,-163"/>
<polygon fill="#000000" stroke="#000000" points="356.2561,-166.5001 366.2561,-163 356.256,-159.5001 356.2561,-166.5001"/>
</g>
<!-- ScreensRoutingModule -->
<g id="node7" class="node">
<title>ScreensRoutingModule</title>
<polygon fill="#8dd3c7" stroke="#000000" points="172.1993,-122 169.1993,-126 148.1993,-126 145.1993,-122 23.8007,-122 23.8007,-86 172.1993,-86 172.1993,-122"/>
<text text-anchor="middle" x="98" y="-99.8" font-family="Times,serif" font-size="14.00" fill="#000000">ScreensRoutingModule</text>
</g>
<!-- ScreensRoutingModule&#45;&gt;ScreensModule -->
<g id="edge6" class="edge">
<title>ScreensRoutingModule&#45;&gt;ScreensModule</title>
<path fill="none" stroke="#000000" d="M98,-122.2843C98,-143.3211 98,-175 98,-175 98,-175 356.2308,-175 356.2308,-175"/>
<polygon fill="#000000" stroke="#000000" points="356.2309,-178.5001 366.2308,-175 356.2308,-171.5001 356.2309,-178.5001"/>
</g>
</g>
</svg>
