<?xml version="1.0" encoding="UTF-8" standalone="no"?>
<!DOCTYPE svg PUBLIC "-//W3C//DTD SVG 1.1//EN"
 "http://www.w3.org/Graphics/SVG/1.1/DTD/svg11.dtd">
<!-- Generated by graphviz version 2.40.1 (20161225.0304)
 -->
<!-- Title: dependencies Pages: 1 -->
<svg width="722pt" height="211pt"
 viewBox="0.00 0.00 722.00 211.00" xmlns="http://www.w3.org/2000/svg" xmlns:xlink="http://www.w3.org/1999/xlink">
<g id="graph0" class="graph" transform="scale(1 1) rotate(0) translate(4 207)">
<title>dependencies</title>
<polygon fill="#ffffff" stroke="transparent" points="-4,4 -4,-207 718,-207 718,4 -4,4"/>
<text text-anchor="start" x="336.0091" y="-42.4" font-family="sans-serif" font-weight="bold" font-size="14.00" fill="#000000">Legend</text>
<polygon fill="#ffffb3" stroke="transparent" points="123,-10 123,-30 143,-30 143,-10 123,-10"/>
<text text-anchor="start" x="146.629" y="-15.4" font-family="sans-serif" font-size="14.00" fill="#000000"> &#160;Declarations</text>
<polygon fill="#8dd3c7" stroke="transparent" points="236,-10 236,-30 256,-30 256,-10 236,-10"/>
<text text-anchor="start" x="259.7251" y="-15.4" font-family="sans-serif" font-size="14.00" fill="#000000"> &#160;Module</text>
<polygon fill="#80b1d3" stroke="transparent" points="322,-10 322,-30 342,-30 342,-10 322,-10"/>
<text text-anchor="start" x="345.7812" y="-15.4" font-family="sans-serif" font-size="14.00" fill="#000000"> &#160;Bootstrap</text>
<polygon fill="#fdb462" stroke="transparent" points="419,-10 419,-30 439,-30 439,-10 419,-10"/>
<text text-anchor="start" x="442.6732" y="-15.4" font-family="sans-serif" font-size="14.00" fill="#000000"> &#160;Providers</text>
<polygon fill="#fb8072" stroke="transparent" points="515,-10 515,-30 535,-30 535,-10 515,-10"/>
<text text-anchor="start" x="538.7258" y="-15.4" font-family="sans-serif" font-size="14.00" fill="#000000"> &#160;Exports</text>
<g id="clust1" class="cluster">
<title>cluster_DashboardModule</title>
<polygon fill="none" stroke="#000000" stroke-dasharray="1,5" points="8,-70 8,-195 706,-195 706,-70 8,-70"/>
</g>
<g id="clust2" class="cluster">
<title>cluster_DashboardModule_declarations</title>
<polygon fill="none" stroke="#000000" points="540,-78 540,-130 698,-130 698,-78 540,-78"/>
</g>
<g id="clust4" class="cluster">
<title>cluster_DashboardModule_imports</title>
<polygon fill="none" stroke="#000000" points="16,-78 16,-130 532,-130 532,-78 16,-78"/>
</g>
<!-- DashboardComponent -->
<g id="node1" class="node">
<title>DashboardComponent</title>
<polygon fill="#ffffb3" stroke="#000000" points="689.9734,-122 548.0266,-122 548.0266,-86 689.9734,-86 689.9734,-122"/>
<text text-anchor="middle" x="619" y="-99.8" font-family="Times,serif" font-size="14.00" fill="#000000">DashboardComponent</text>
</g>
<!-- DashboardModule -->
<g id="node2" class="node">
<title>DashboardModule</title>
<polygon fill="#8dd3c7" stroke="#000000" points="353.191,-187 350.191,-191 329.191,-191 326.191,-187 232.809,-187 232.809,-151 353.191,-151 353.191,-187"/>
<text text-anchor="middle" x="293" y="-164.8" font-family="Times,serif" font-size="14.00" fill="#000000">DashboardModule</text>
</g>
<!-- DashboardComponent&#45;&gt;DashboardModule -->
<g id="edge1" class="edge">
<title>DashboardComponent&#45;&gt;DashboardModule</title>
<path fill="none" stroke="#000000" d="M619,-122.1061C619,-141.3391 619,-169 619,-169 619,-169 363.1733,-169 363.1733,-169"/>
<polygon fill="#000000" stroke="#000000" points="363.1734,-165.5001 353.1733,-169 363.1733,-172.5001 363.1734,-165.5001"/>
</g>
<!-- DashboardRoutingModule -->
<g id="node3" class="node">
<title>DashboardRoutingModule</title>
<polygon fill="#8dd3c7" stroke="#000000" points="523.8089,-122 520.8089,-126 499.8089,-126 496.8089,-122 358.1911,-122 358.1911,-86 523.8089,-86 523.8089,-122"/>
<text text-anchor="middle" x="441" y="-99.8" font-family="Times,serif" font-size="14.00" fill="#000000">DashboardRoutingModule</text>
</g>
<!-- DashboardRoutingModule&#45;&gt;DashboardModule -->
<g id="edge2" class="edge">
<title>DashboardRoutingModule&#45;&gt;DashboardModule</title>
<path fill="none" stroke="#000000" d="M358.0771,-104C351.0106,-104 346.4881,-104 346.4881,-104 346.4881,-104 346.4881,-140.8939 346.4881,-140.8939"/>
<polygon fill="#000000" stroke="#000000" points="342.9882,-140.8938 346.4881,-150.8939 349.9882,-140.8939 342.9882,-140.8938"/>
</g>
<!-- HomeModule -->
<g id="node4" class="node">
<title>HomeModule</title>
<polygon fill="#8dd3c7" stroke="#000000" points="339.7619,-122 336.7619,-126 315.7619,-126 312.7619,-122 246.2381,-122 246.2381,-86 339.7619,-86 339.7619,-122"/>
<text text-anchor="middle" x="293" y="-99.8" font-family="Times,serif" font-size="14.00" fill="#000000">HomeModule</text>
</g>
<!-- HomeModule&#45;&gt;DashboardModule -->
<g id="edge3" class="edge">
<title>HomeModule&#45;&gt;DashboardModule</title>
<path fill="none" stroke="#000000" d="M293,-122.1061C293,-122.1061 293,-140.991 293,-140.991"/>
<polygon fill="#000000" stroke="#000000" points="289.5001,-140.9909 293,-150.991 296.5001,-140.991 289.5001,-140.9909"/>
</g>
<!-- LayoutModule -->
<g id="node5" class="node">
<title>LayoutModule</title>
<polygon fill="#8dd3c7" stroke="#000000" points="228.7078,-122 225.7078,-126 204.7078,-126 201.7078,-122 129.2922,-122 129.2922,-86 228.7078,-86 228.7078,-122"/>
<text text-anchor="middle" x="179" y="-99.8" font-family="Times,serif" font-size="14.00" fill="#000000">LayoutModule</text>
</g>
<!-- LayoutModule&#45;&gt;DashboardModule -->
<g id="edge4" class="edge">
<title>LayoutModule&#45;&gt;DashboardModule</title>
<path fill="none" stroke="#000000" d="M228.6936,-104C235.1159,-104 239.5119,-104 239.5119,-104 239.5119,-104 239.5119,-140.8939 239.5119,-140.8939"/>
<polygon fill="#000000" stroke="#000000" points="236.012,-140.8938 239.5119,-150.8939 243.012,-140.8939 236.012,-140.8938"/>
</g>
<!-- MiscModule -->
<g id="node6" class="node">
<title>MiscModule</title>
<polygon fill="#8dd3c7" stroke="#000000" points="111.5454,-122 108.5454,-126 87.5454,-126 84.5454,-122 24.4546,-122 24.4546,-86 111.5454,-86 111.5454,-122"/>
<text text-anchor="middle" x="68" y="-99.8" font-family="Times,serif" font-size="14.00" fill="#000000">MiscModule</text>
</g>
<!-- MiscModule&#45;&gt;DashboardModule -->
<g id="edge5" class="edge">
<title>MiscModule&#45;&gt;DashboardModule</title>
<path fill="none" stroke="#000000" d="M68,-122.1061C68,-141.3391 68,-169 68,-169 68,-169 222.7041,-169 222.7041,-169"/>
<polygon fill="#000000" stroke="#000000" points="222.7042,-172.5001 232.7041,-169 222.7041,-165.5001 222.7042,-172.5001"/>
</g>
</g>
</svg>
