<?xml version="1.0" encoding="UTF-8" standalone="no"?>
<!DOCTYPE svg PUBLIC "-//W3C//DTD SVG 1.1//EN"
 "http://www.w3.org/Graphics/SVG/1.1/DTD/svg11.dtd">
<!-- Generated by graphviz version 2.40.1 (20161225.0304)
 -->
<!-- Title: dependencies Pages: 1 -->
<svg width="504pt" height="211pt"
 viewBox="0.00 0.00 504.00 211.00" xmlns="http://www.w3.org/2000/svg" xmlns:xlink="http://www.w3.org/1999/xlink">
<g id="graph0" class="graph" transform="scale(1 1) rotate(0) translate(4 207)">
<title>dependencies</title>
<polygon fill="#ffffff" stroke="transparent" points="-4,4 -4,-207 500,-207 500,4 -4,4"/>
<text text-anchor="start" x="227.0091" y="-42.4" font-family="sans-serif" font-weight="bold" font-size="14.00" fill="#000000">Legend</text>
<polygon fill="#ffffb3" stroke="transparent" points="14,-10 14,-30 34,-30 34,-10 14,-10"/>
<text text-anchor="start" x="37.629" y="-15.4" font-family="sans-serif" font-size="14.00" fill="#000000"> &#160;Declarations</text>
<polygon fill="#8dd3c7" stroke="transparent" points="127,-10 127,-30 147,-30 147,-10 127,-10"/>
<text text-anchor="start" x="150.7251" y="-15.4" font-family="sans-serif" font-size="14.00" fill="#000000"> &#160;Module</text>
<polygon fill="#80b1d3" stroke="transparent" points="213,-10 213,-30 233,-30 233,-10 213,-10"/>
<text text-anchor="start" x="236.7812" y="-15.4" font-family="sans-serif" font-size="14.00" fill="#000000"> &#160;Bootstrap</text>
<polygon fill="#fdb462" stroke="transparent" points="310,-10 310,-30 330,-30 330,-10 310,-10"/>
<text text-anchor="start" x="333.6732" y="-15.4" font-family="sans-serif" font-size="14.00" fill="#000000"> &#160;Providers</text>
<polygon fill="#fb8072" stroke="transparent" points="406,-10 406,-30 426,-30 426,-10 406,-10"/>
<text text-anchor="start" x="429.7258" y="-15.4" font-family="sans-serif" font-size="14.00" fill="#000000"> &#160;Exports</text>
<g id="clust1" class="cluster">
<title>cluster_CategoriesModule</title>
<polygon fill="none" stroke="#000000" stroke-dasharray="1,5" points="8,-70 8,-195 488,-195 488,-70 8,-70"/>
</g>
<g id="clust2" class="cluster">
<title>cluster_CategoriesModule_declarations</title>
<polygon fill="none" stroke="#000000" points="322,-78 322,-130 480,-130 480,-78 322,-78"/>
</g>
<g id="clust4" class="cluster">
<title>cluster_CategoriesModule_imports</title>
<polygon fill="none" stroke="#000000" points="16,-78 16,-130 314,-130 314,-78 16,-78"/>
</g>
<!-- CategoriesComponent -->
<g id="node1" class="node">
<title>CategoriesComponent</title>
<polygon fill="#ffffb3" stroke="#000000" points="471.6993,-122 330.3007,-122 330.3007,-86 471.6993,-86 471.6993,-122"/>
<text text-anchor="middle" x="401" y="-99.8" font-family="Times,serif" font-size="14.00" fill="#000000">CategoriesComponent</text>
</g>
<!-- CategoriesModule -->
<g id="node2" class="node">
<title>CategoriesModule</title>
<polygon fill="#8dd3c7" stroke="#000000" points="283.9173,-187 280.9173,-191 259.9173,-191 256.9173,-187 164.0827,-187 164.0827,-151 283.9173,-151 283.9173,-187"/>
<text text-anchor="middle" x="224" y="-164.8" font-family="Times,serif" font-size="14.00" fill="#000000">CategoriesModule</text>
</g>
<!-- CategoriesComponent&#45;&gt;CategoriesModule -->
<g id="edge1" class="edge">
<title>CategoriesComponent&#45;&gt;CategoriesModule</title>
<path fill="none" stroke="#000000" d="M401,-122.1061C401,-141.3391 401,-169 401,-169 401,-169 293.9241,-169 293.9241,-169"/>
<polygon fill="#000000" stroke="#000000" points="293.9242,-165.5001 283.9241,-169 293.9241,-172.5001 293.9242,-165.5001"/>
</g>
<!-- CategoriesRoutingModule -->
<g id="node3" class="node">
<title>CategoriesRoutingModule</title>
<polygon fill="#8dd3c7" stroke="#000000" points="306.0351,-122 303.0351,-126 282.0351,-126 279.0351,-122 141.9649,-122 141.9649,-86 306.0351,-86 306.0351,-122"/>
<text text-anchor="middle" x="224" y="-99.8" font-family="Times,serif" font-size="14.00" fill="#000000">CategoriesRoutingModule</text>
</g>
<!-- CategoriesRoutingModule&#45;&gt;CategoriesModule -->
<g id="edge2" class="edge">
<title>CategoriesRoutingModule&#45;&gt;CategoriesModule</title>
<path fill="none" stroke="#000000" d="M224,-122.1061C224,-122.1061 224,-140.991 224,-140.991"/>
<polygon fill="#000000" stroke="#000000" points="220.5001,-140.9909 224,-150.991 227.5001,-140.991 220.5001,-140.9909"/>
</g>
<!-- LayoutModule -->
<g id="node4" class="node">
<title>LayoutModule</title>
<polygon fill="#8dd3c7" stroke="#000000" points="123.7078,-122 120.7078,-126 99.7078,-126 96.7078,-122 24.2922,-122 24.2922,-86 123.7078,-86 123.7078,-122"/>
<text text-anchor="middle" x="74" y="-99.8" font-family="Times,serif" font-size="14.00" fill="#000000">LayoutModule</text>
</g>
<!-- LayoutModule&#45;&gt;CategoriesModule -->
<g id="edge3" class="edge">
<title>LayoutModule&#45;&gt;CategoriesModule</title>
<path fill="none" stroke="#000000" d="M74,-122.1061C74,-141.3391 74,-169 74,-169 74,-169 154.285,-169 154.285,-169"/>
<polygon fill="#000000" stroke="#000000" points="154.2851,-172.5001 164.285,-169 154.285,-165.5001 154.2851,-172.5001"/>
</g>
</g>
</svg>
