<?xml version="1.0" encoding="UTF-8" standalone="no"?>
<!DOCTYPE svg PUBLIC "-//W3C//DTD SVG 1.1//EN"
 "http://www.w3.org/Graphics/SVG/1.1/DTD/svg11.dtd">
<!-- Generated by graphviz version 2.40.1 (20161225.0304)
 -->
<!-- Title: dependencies Pages: 1 -->
<svg width="1701pt" height="284pt"
 viewBox="0.00 0.00 1701.00 284.00" xmlns="http://www.w3.org/2000/svg" xmlns:xlink="http://www.w3.org/1999/xlink">
<g id="graph0" class="graph" transform="scale(1 1) rotate(0) translate(4 280)">
<title>dependencies</title>
<polygon fill="#ffffff" stroke="transparent" points="-4,4 -4,-280 1697,-280 1697,4 -4,4"/>
<text text-anchor="start" x="825.5091" y="-42.4" font-family="sans-serif" font-weight="bold" font-size="14.00" fill="#000000">Legend</text>
<polygon fill="#ffffb3" stroke="transparent" points="612.5,-10 612.5,-30 632.5,-30 632.5,-10 612.5,-10"/>
<text text-anchor="start" x="636.129" y="-15.4" font-family="sans-serif" font-size="14.00" fill="#000000"> &#160;Declarations</text>
<polygon fill="#8dd3c7" stroke="transparent" points="725.5,-10 725.5,-30 745.5,-30 745.5,-10 725.5,-10"/>
<text text-anchor="start" x="749.2251" y="-15.4" font-family="sans-serif" font-size="14.00" fill="#000000"> &#160;Module</text>
<polygon fill="#80b1d3" stroke="transparent" points="811.5,-10 811.5,-30 831.5,-30 831.5,-10 811.5,-10"/>
<text text-anchor="start" x="835.2812" y="-15.4" font-family="sans-serif" font-size="14.00" fill="#000000"> &#160;Bootstrap</text>
<polygon fill="#fdb462" stroke="transparent" points="908.5,-10 908.5,-30 928.5,-30 928.5,-10 908.5,-10"/>
<text text-anchor="start" x="932.1732" y="-15.4" font-family="sans-serif" font-size="14.00" fill="#000000"> &#160;Providers</text>
<polygon fill="#fb8072" stroke="transparent" points="1004.5,-10 1004.5,-30 1024.5,-30 1024.5,-10 1004.5,-10"/>
<text text-anchor="start" x="1028.2258" y="-15.4" font-family="sans-serif" font-size="14.00" fill="#000000"> &#160;Exports</text>
<g id="clust1" class="cluster">
<title>cluster_LayoutModule</title>
<polygon fill="none" stroke="#000000" stroke-dasharray="1,5" points="8,-70 8,-268 1685,-268 1685,-70 8,-70"/>
</g>
<g id="clust2" class="cluster">
<title>cluster_LayoutModule_declarations</title>
<polygon fill="none" stroke="#000000" points="33,-78 33,-130 1661,-130 1661,-78 33,-78"/>
</g>
<g id="clust13" class="cluster">
<title>cluster_LayoutModule_exports</title>
<polygon fill="none" stroke="#000000" points="16,-208 16,-260 1677,-260 1677,-208 16,-208"/>
</g>
<!-- LayoutCardBodyComponent -->
<g id="node1" class="node">
<title>LayoutCardBodyComponent</title>
<polygon fill="#ffffb3" stroke="#000000" points="1653.0392,-122 1474.9608,-122 1474.9608,-86 1653.0392,-86 1653.0392,-122"/>
<text text-anchor="middle" x="1564" y="-99.8" font-family="Times,serif" font-size="14.00" fill="#000000">LayoutCardBodyComponent</text>
</g>
<!-- LayoutModule -->
<g id="node10" class="node">
<title>LayoutModule</title>
<polygon fill="#8dd3c7" stroke="#000000" points="870.7078,-187 867.7078,-191 846.7078,-191 843.7078,-187 771.2922,-187 771.2922,-151 870.7078,-151 870.7078,-187"/>
<text text-anchor="middle" x="821" y="-164.8" font-family="Times,serif" font-size="14.00" fill="#000000">LayoutModule</text>
</g>
<!-- LayoutCardBodyComponent&#45;&gt;LayoutModule -->
<g id="edge1" class="edge">
<title>LayoutCardBodyComponent&#45;&gt;LayoutModule</title>
<path fill="none" stroke="#000000" d="M1480.8557,-122.2222C1480.8557,-140.8285 1480.8557,-167 1480.8557,-167 1480.8557,-167 880.8669,-167 880.8669,-167"/>
<polygon fill="#000000" stroke="#000000" points="880.8669,-163.5001 870.8669,-167 880.8669,-170.5001 880.8669,-163.5001"/>
</g>
<!-- LayoutCardComponent -->
<g id="node2" class="node">
<title>LayoutCardComponent</title>
<polygon fill="#ffffb3" stroke="#000000" points="1457.2021,-122 1308.7979,-122 1308.7979,-86 1457.2021,-86 1457.2021,-122"/>
<text text-anchor="middle" x="1383" y="-99.8" font-family="Times,serif" font-size="14.00" fill="#000000">LayoutCardComponent</text>
</g>
<!-- LayoutCardComponent&#45;&gt;LayoutModule -->
<g id="edge2" class="edge">
<title>LayoutCardComponent&#45;&gt;LayoutModule</title>
<path fill="none" stroke="#000000" d="M1313.024,-122.0225C1313.024,-139.3734 1313.024,-163 1313.024,-163 1313.024,-163 880.8856,-163 880.8856,-163"/>
<polygon fill="#000000" stroke="#000000" points="880.8856,-159.5001 870.8856,-163 880.8855,-166.5001 880.8856,-159.5001"/>
</g>
<!-- LayoutCardFooterComponent -->
<g id="node3" class="node">
<title>LayoutCardFooterComponent</title>
<polygon fill="#ffffb3" stroke="#000000" points="1291.2506,-122 1106.7494,-122 1106.7494,-86 1291.2506,-86 1291.2506,-122"/>
<text text-anchor="middle" x="1199" y="-99.8" font-family="Times,serif" font-size="14.00" fill="#000000">LayoutCardFooterComponent</text>
</g>
<!-- LayoutCardFooterComponent&#45;&gt;LayoutModule -->
<g id="edge3" class="edge">
<title>LayoutCardFooterComponent&#45;&gt;LayoutModule</title>
<path fill="none" stroke="#000000" d="M1231.2084,-122.0091C1231.2084,-138.0494 1231.2084,-159 1231.2084,-159 1231.2084,-159 880.8895,-159 880.8895,-159"/>
<polygon fill="#000000" stroke="#000000" points="880.8895,-155.5001 870.8895,-159 880.8895,-162.5001 880.8895,-155.5001"/>
</g>
<!-- LayoutCardHeaderComponent -->
<g id="node4" class="node">
<title>LayoutCardHeaderComponent</title>
<polygon fill="#ffffb3" stroke="#000000" points="1088.1134,-122 899.8866,-122 899.8866,-86 1088.1134,-86 1088.1134,-122"/>
<text text-anchor="middle" x="994" y="-99.8" font-family="Times,serif" font-size="14.00" fill="#000000">LayoutCardHeaderComponent</text>
</g>
<!-- LayoutCardHeaderComponent&#45;&gt;LayoutModule -->
<g id="edge4" class="edge">
<title>LayoutCardHeaderComponent&#45;&gt;LayoutModule</title>
<path fill="none" stroke="#000000" d="M1025.8522,-122.1243C1025.8522,-136.7832 1025.8522,-155 1025.8522,-155 1025.8522,-155 880.8505,-155 880.8505,-155"/>
<polygon fill="#000000" stroke="#000000" points="880.8506,-151.5001 870.8505,-155 880.8505,-158.5001 880.8506,-151.5001"/>
</g>
<!-- LayoutComponent -->
<g id="node5" class="node">
<title>LayoutComponent</title>
<polygon fill="#ffffb3" stroke="#000000" points="881.4902,-122 760.5098,-122 760.5098,-86 881.4902,-86 881.4902,-122"/>
<text text-anchor="middle" x="821" y="-99.8" font-family="Times,serif" font-size="14.00" fill="#000000">LayoutComponent</text>
</g>
<!-- LayoutComponent&#45;&gt;LayoutModule -->
<g id="edge5" class="edge">
<title>LayoutComponent&#45;&gt;LayoutModule</title>
<path fill="none" stroke="#000000" d="M821,-122.1061C821,-122.1061 821,-140.991 821,-140.991"/>
<polygon fill="#000000" stroke="#000000" points="817.5001,-140.9909 821,-150.991 824.5001,-140.991 817.5001,-140.9909"/>
</g>
<!-- LayoutContentComponent -->
<g id="node6" class="node">
<title>LayoutContentComponent</title>
<polygon fill="#ffffb3" stroke="#000000" points="742.8229,-122 577.1771,-122 577.1771,-86 742.8229,-86 742.8229,-122"/>
<text text-anchor="middle" x="660" y="-99.8" font-family="Times,serif" font-size="14.00" fill="#000000">LayoutContentComponent</text>
</g>
<!-- LayoutContentComponent&#45;&gt;LayoutModule -->
<g id="edge6" class="edge">
<title>LayoutContentComponent&#45;&gt;LayoutModule</title>
<path fill="none" stroke="#000000" d="M686.0538,-122.1243C686.0538,-136.7832 686.0538,-155 686.0538,-155 686.0538,-155 761.1344,-155 761.1344,-155"/>
<polygon fill="#000000" stroke="#000000" points="761.1344,-158.5001 771.1344,-155 761.1344,-151.5001 761.1344,-158.5001"/>
</g>
<!-- LayoutFooterComponent -->
<g id="node7" class="node">
<title>LayoutFooterComponent</title>
<polygon fill="#ffffb3" stroke="#000000" points="559.5393,-122 402.4607,-122 402.4607,-86 559.5393,-86 559.5393,-122"/>
<text text-anchor="middle" x="481" y="-99.8" font-family="Times,serif" font-size="14.00" fill="#000000">LayoutFooterComponent</text>
</g>
<!-- LayoutFooterComponent&#45;&gt;LayoutModule -->
<g id="edge7" class="edge">
<title>LayoutFooterComponent&#45;&gt;LayoutModule</title>
<path fill="none" stroke="#000000" d="M503.0898,-122.0091C503.0898,-138.0494 503.0898,-159 503.0898,-159 503.0898,-159 761.3265,-159 761.3265,-159"/>
<polygon fill="#000000" stroke="#000000" points="761.3266,-162.5001 771.3265,-159 761.3265,-155.5001 761.3266,-162.5001"/>
</g>
<!-- LayoutHeaderComponent -->
<g id="node8" class="node">
<title>LayoutHeaderComponent</title>
<polygon fill="#ffffb3" stroke="#000000" points="384.9017,-122 223.0983,-122 223.0983,-86 384.9017,-86 384.9017,-122"/>
<text text-anchor="middle" x="304" y="-99.8" font-family="Times,serif" font-size="14.00" fill="#000000">LayoutHeaderComponent</text>
</g>
<!-- LayoutHeaderComponent&#45;&gt;LayoutModule -->
<g id="edge8" class="edge">
<title>LayoutHeaderComponent&#45;&gt;LayoutModule</title>
<path fill="none" stroke="#000000" d="M379.5756,-122.0225C379.5756,-139.3734 379.5756,-163 379.5756,-163 379.5756,-163 761.2211,-163 761.2211,-163"/>
<polygon fill="#000000" stroke="#000000" points="761.2211,-166.5001 771.2211,-163 761.221,-159.5001 761.2211,-166.5001"/>
</g>
<!-- LayoutSidebarComponent -->
<g id="node9" class="node">
<title>LayoutSidebarComponent</title>
<polygon fill="#ffffb3" stroke="#000000" points="204.7534,-122 41.2466,-122 41.2466,-86 204.7534,-86 204.7534,-122"/>
<text text-anchor="middle" x="123" y="-99.8" font-family="Times,serif" font-size="14.00" fill="#000000">LayoutSidebarComponent</text>
</g>
<!-- LayoutSidebarComponent&#45;&gt;LayoutModule -->
<g id="edge9" class="edge">
<title>LayoutSidebarComponent&#45;&gt;LayoutModule</title>
<path fill="none" stroke="#000000" d="M198.2516,-122.2222C198.2516,-140.8285 198.2516,-167 198.2516,-167 198.2516,-167 761.3523,-167 761.3523,-167"/>
<polygon fill="#000000" stroke="#000000" points="761.3523,-170.5001 771.3523,-167 761.3523,-163.5001 761.3523,-170.5001"/>
</g>
<!-- LayoutCardBodyComponent  -->
<g id="node11" class="node">
<title>LayoutCardBodyComponent </title>
<polygon fill="#fb8072" stroke="#000000" points="1669.0386,-252 1486.9614,-252 1486.9614,-216 1669.0386,-216 1669.0386,-252"/>
<text text-anchor="middle" x="1578" y="-229.8" font-family="Times,serif" font-size="14.00" fill="#000000">LayoutCardBodyComponent </text>
</g>
<!-- LayoutModule&#45;&gt;LayoutCardBodyComponent  -->
<g id="edge10" class="edge">
<title>LayoutModule&#45;&gt;LayoutCardBodyComponent </title>
<path fill="none" stroke="#000000" stroke-dasharray="5,2" d="M870.7323,-171C1038.0462,-171 1570.125,-171 1570.125,-171 1570.125,-171 1570.125,-205.7778 1570.125,-205.7778"/>
<polygon fill="#000000" stroke="#000000" points="1566.6251,-205.7778 1570.125,-215.7778 1573.6251,-205.7778 1566.6251,-205.7778"/>
</g>
<!-- LayoutCardComponent  -->
<g id="node12" class="node">
<title>LayoutCardComponent </title>
<polygon fill="#fb8072" stroke="#000000" points="1468.7023,-252 1317.2977,-252 1317.2977,-216 1468.7023,-216 1468.7023,-252"/>
<text text-anchor="middle" x="1393" y="-229.8" font-family="Times,serif" font-size="14.00" fill="#000000">LayoutCardComponent </text>
</g>
<!-- LayoutModule&#45;&gt;LayoutCardComponent  -->
<g id="edge11" class="edge">
<title>LayoutModule&#45;&gt;LayoutCardComponent </title>
<path fill="none" stroke="#000000" stroke-dasharray="5,2" d="M870.7436,-175C1008.8886,-175 1387.125,-175 1387.125,-175 1387.125,-175 1387.125,-205.9775 1387.125,-205.9775"/>
<polygon fill="#000000" stroke="#000000" points="1383.6251,-205.9774 1387.125,-215.9775 1390.6251,-205.9775 1383.6251,-205.9774"/>
</g>
<!-- LayoutCardFooterComponent  -->
<g id="node13" class="node">
<title>LayoutCardFooterComponent </title>
<polygon fill="#fb8072" stroke="#000000" points="1299.2506,-252 1110.7494,-252 1110.7494,-216 1299.2506,-216 1299.2506,-252"/>
<text text-anchor="middle" x="1205" y="-229.8" font-family="Times,serif" font-size="14.00" fill="#000000">LayoutCardFooterComponent </text>
</g>
<!-- LayoutModule&#45;&gt;LayoutCardFooterComponent  -->
<g id="edge12" class="edge">
<title>LayoutModule&#45;&gt;LayoutCardFooterComponent </title>
<path fill="none" stroke="#000000" stroke-dasharray="5,2" d="M870.7807,-179C967.421,-179 1171.0416,-179 1171.0416,-179 1171.0416,-179 1171.0416,-205.9909 1171.0416,-205.9909"/>
<polygon fill="#000000" stroke="#000000" points="1167.5417,-205.9909 1171.0416,-215.9909 1174.5417,-205.991 1167.5417,-205.9909"/>
</g>
<!-- LayoutCardHeaderComponent  -->
<g id="node14" class="node">
<title>LayoutCardHeaderComponent </title>
<polygon fill="#fb8072" stroke="#000000" points="1093.113,-252 900.887,-252 900.887,-216 1093.113,-216 1093.113,-252"/>
<text text-anchor="middle" x="997" y="-229.8" font-family="Times,serif" font-size="14.00" fill="#000000">LayoutCardHeaderComponent </text>
</g>
<!-- LayoutModule&#45;&gt;LayoutCardHeaderComponent  -->
<g id="edge13" class="edge">
<title>LayoutModule&#45;&gt;LayoutCardHeaderComponent </title>
<path fill="none" stroke="#000000" stroke-dasharray="5,2" d="M870.8039,-183C911.8673,-183 963.3978,-183 963.3978,-183 963.3978,-183 963.3978,-205.8757 963.3978,-205.8757"/>
<polygon fill="#000000" stroke="#000000" points="959.8979,-205.8757 963.3978,-215.8757 966.8979,-205.8757 959.8979,-205.8757"/>
</g>
<!-- LayoutComponent  -->
<g id="node15" class="node">
<title>LayoutComponent </title>
<polygon fill="#fb8072" stroke="#000000" points="883.4912,-252 758.5088,-252 758.5088,-216 883.4912,-216 883.4912,-252"/>
<text text-anchor="middle" x="821" y="-229.8" font-family="Times,serif" font-size="14.00" fill="#000000">LayoutComponent </text>
</g>
<!-- LayoutModule&#45;&gt;LayoutComponent  -->
<g id="edge14" class="edge">
<title>LayoutModule&#45;&gt;LayoutComponent </title>
<path fill="none" stroke="#000000" stroke-dasharray="5,2" d="M821,-187.1061C821,-187.1061 821,-205.991 821,-205.991"/>
<polygon fill="#000000" stroke="#000000" points="817.5001,-205.9909 821,-215.991 824.5001,-205.991 817.5001,-205.9909"/>
</g>
<!-- LayoutContentComponent  -->
<g id="node16" class="node">
<title>LayoutContentComponent </title>
<polygon fill="#fb8072" stroke="#000000" points="740.3227,-252 571.6773,-252 571.6773,-216 740.3227,-216 740.3227,-252"/>
<text text-anchor="middle" x="656" y="-229.8" font-family="Times,serif" font-size="14.00" fill="#000000">LayoutContentComponent </text>
</g>
<!-- LayoutModule&#45;&gt;LayoutContentComponent  -->
<g id="edge15" class="edge">
<title>LayoutModule&#45;&gt;LayoutContentComponent </title>
<path fill="none" stroke="#000000" stroke-dasharray="5,2" d="M771.2627,-183C715.1752,-183 631.6962,-183 631.6962,-183 631.6962,-183 631.6962,-205.8757 631.6962,-205.8757"/>
<polygon fill="#000000" stroke="#000000" points="628.1963,-205.8757 631.6962,-215.8757 635.1963,-205.8757 628.1963,-205.8757"/>
</g>
<!-- LayoutFooterComponent  -->
<g id="node17" class="node">
<title>LayoutFooterComponent </title>
<polygon fill="#fb8072" stroke="#000000" points="553.5386,-252 392.4614,-252 392.4614,-216 553.5386,-216 553.5386,-252"/>
<text text-anchor="middle" x="473" y="-229.8" font-family="Times,serif" font-size="14.00" fill="#000000">LayoutFooterComponent </text>
</g>
<!-- LayoutModule&#45;&gt;LayoutFooterComponent  -->
<g id="edge16" class="edge">
<title>LayoutModule&#45;&gt;LayoutFooterComponent </title>
<path fill="none" stroke="#000000" stroke-dasharray="5,2" d="M771.3241,-179C670.7831,-179 452.6602,-179 452.6602,-179 452.6602,-179 452.6602,-205.9909 452.6602,-205.9909"/>
<polygon fill="#000000" stroke="#000000" points="449.1603,-205.9909 452.6602,-215.9909 456.1603,-205.991 449.1603,-205.9909"/>
</g>
<!-- LayoutHeaderComponent  -->
<g id="node18" class="node">
<title>LayoutHeaderComponent </title>
<polygon fill="#fb8072" stroke="#000000" points="374.4012,-252 209.5988,-252 209.5988,-216 374.4012,-216 374.4012,-252"/>
<text text-anchor="middle" x="292" y="-229.8" font-family="Times,serif" font-size="14.00" fill="#000000">LayoutHeaderComponent </text>
</g>
<!-- LayoutModule&#45;&gt;LayoutHeaderComponent  -->
<g id="edge17" class="edge">
<title>LayoutModule&#45;&gt;LayoutHeaderComponent </title>
<path fill="none" stroke="#000000" stroke-dasharray="5,2" d="M770.9365,-175C640.2528,-175 298.875,-175 298.875,-175 298.875,-175 298.875,-205.9775 298.875,-205.9775"/>
<polygon fill="#000000" stroke="#000000" points="295.3751,-205.9774 298.875,-215.9775 302.3751,-205.9775 295.3751,-205.9774"/>
</g>
<!-- LayoutSidebarComponent  -->
<g id="node19" class="node">
<title>LayoutSidebarComponent </title>
<polygon fill="#fb8072" stroke="#000000" points="191.7534,-252 24.2466,-252 24.2466,-216 191.7534,-216 191.7534,-252"/>
<text text-anchor="middle" x="108" y="-229.8" font-family="Times,serif" font-size="14.00" fill="#000000">LayoutSidebarComponent </text>
</g>
<!-- LayoutModule&#45;&gt;LayoutSidebarComponent  -->
<g id="edge18" class="edge">
<title>LayoutModule&#45;&gt;LayoutSidebarComponent </title>
<path fill="none" stroke="#000000" stroke-dasharray="5,2" d="M771.1714,-171C610.4881,-171 116.375,-171 116.375,-171 116.375,-171 116.375,-205.7778 116.375,-205.7778"/>
<polygon fill="#000000" stroke="#000000" points="112.8751,-205.7778 116.375,-215.7778 119.8751,-205.7778 112.8751,-205.7778"/>
</g>
</g>
</svg>
