<?xml version="1.0" encoding="UTF-8" standalone="no"?>
<!DOCTYPE svg PUBLIC "-//W3C//DTD SVG 1.1//EN"
 "http://www.w3.org/Graphics/SVG/1.1/DTD/svg11.dtd">
<!-- Generated by graphviz version 2.40.1 (20161225.0304)
 -->
<!-- Title: dependencies Pages: 1 -->
<svg width="504pt" height="284pt"
 viewBox="0.00 0.00 504.00 284.00" xmlns="http://www.w3.org/2000/svg" xmlns:xlink="http://www.w3.org/1999/xlink">
<g id="graph0" class="graph" transform="scale(1 1) rotate(0) translate(4 280)">
<title>dependencies</title>
<polygon fill="#ffffff" stroke="transparent" points="-4,4 -4,-280 500,-280 500,4 -4,4"/>
<text text-anchor="start" x="227.0091" y="-42.4" font-family="sans-serif" font-weight="bold" font-size="14.00" fill="#000000">Legend</text>
<polygon fill="#ffffb3" stroke="transparent" points="14,-10 14,-30 34,-30 34,-10 14,-10"/>
<text text-anchor="start" x="37.629" y="-15.4" font-family="sans-serif" font-size="14.00" fill="#000000"> &#160;Declarations</text>
<polygon fill="#8dd3c7" stroke="transparent" points="127,-10 127,-30 147,-30 147,-10 127,-10"/>
<text text-anchor="start" x="150.7251" y="-15.4" font-family="sans-serif" font-size="14.00" fill="#000000"> &#160;Module</text>
<polygon fill="#80b1d3" stroke="transparent" points="213,-10 213,-30 233,-30 233,-10 213,-10"/>
<text text-anchor="start" x="236.7812" y="-15.4" font-family="sans-serif" font-size="14.00" fill="#000000"> &#160;Bootstrap</text>
<polygon fill="#fdb462" stroke="transparent" points="310,-10 310,-30 330,-30 330,-10 310,-10"/>
<text text-anchor="start" x="333.6732" y="-15.4" font-family="sans-serif" font-size="14.00" fill="#000000"> &#160;Providers</text>
<polygon fill="#fb8072" stroke="transparent" points="406,-10 406,-30 426,-30 426,-10 406,-10"/>
<text text-anchor="start" x="429.7258" y="-15.4" font-family="sans-serif" font-size="14.00" fill="#000000"> &#160;Exports</text>
<g id="clust1" class="cluster">
<title>cluster_MiscModule</title>
<polygon fill="none" stroke="#000000" stroke-dasharray="1,5" points="27.5,-70 27.5,-268 468.5,-268 468.5,-70 27.5,-70"/>
</g>
<g id="clust2" class="cluster">
<title>cluster_MiscModule_declarations</title>
<polygon fill="none" stroke="#000000" points="191.5,-78 191.5,-130 460.5,-130 460.5,-78 191.5,-78"/>
</g>
<g id="clust5" class="cluster">
<title>cluster_MiscModule_imports</title>
<polygon fill="none" stroke="#000000" points="35.5,-78 35.5,-130 183.5,-130 183.5,-78 35.5,-78"/>
</g>
<g id="clust6" class="cluster">
<title>cluster_MiscModule_exports</title>
<polygon fill="none" stroke="#000000" points="117.5,-208 117.5,-260 393.5,-260 393.5,-208 117.5,-208"/>
</g>
<!-- ErrorComponent -->
<g id="node1" class="node">
<title>ErrorComponent</title>
<polygon fill="#ffffb3" stroke="#000000" points="452.8669,-122 342.1331,-122 342.1331,-86 452.8669,-86 452.8669,-122"/>
<text text-anchor="middle" x="397.5" y="-99.8" font-family="Times,serif" font-size="14.00" fill="#000000">ErrorComponent</text>
</g>
<!-- MiscModule -->
<g id="node3" class="node">
<title>MiscModule</title>
<polygon fill="#8dd3c7" stroke="#000000" points="305.0454,-187 302.0454,-191 281.0454,-191 278.0454,-187 217.9546,-187 217.9546,-151 305.0454,-151 305.0454,-187"/>
<text text-anchor="middle" x="261.5" y="-164.8" font-family="Times,serif" font-size="14.00" fill="#000000">MiscModule</text>
</g>
<!-- ErrorComponent&#45;&gt;MiscModule -->
<g id="edge1" class="edge">
<title>ErrorComponent&#45;&gt;MiscModule</title>
<path fill="none" stroke="#000000" d="M363.875,-122.1061C363.875,-141.3391 363.875,-169 363.875,-169 363.875,-169 315.2132,-169 315.2132,-169"/>
<polygon fill="#000000" stroke="#000000" points="315.2132,-165.5001 305.2132,-169 315.2131,-172.5001 315.2132,-165.5001"/>
</g>
<!-- SpinnerComponent -->
<g id="node2" class="node">
<title>SpinnerComponent</title>
<polygon fill="#ffffb3" stroke="#000000" points="323.8809,-122 199.1191,-122 199.1191,-86 323.8809,-86 323.8809,-122"/>
<text text-anchor="middle" x="261.5" y="-99.8" font-family="Times,serif" font-size="14.00" fill="#000000">SpinnerComponent</text>
</g>
<!-- SpinnerComponent&#45;&gt;MiscModule -->
<g id="edge2" class="edge">
<title>SpinnerComponent&#45;&gt;MiscModule</title>
<path fill="none" stroke="#000000" d="M261.5,-122.1061C261.5,-122.1061 261.5,-140.991 261.5,-140.991"/>
<polygon fill="#000000" stroke="#000000" points="258.0001,-140.9909 261.5,-150.991 265.0001,-140.991 258.0001,-140.9909"/>
</g>
<!-- ErrorComponent  -->
<g id="node5" class="node">
<title>ErrorComponent </title>
<polygon fill="#fb8072" stroke="#000000" points="385.8674,-252 271.1326,-252 271.1326,-216 385.8674,-216 385.8674,-252"/>
<text text-anchor="middle" x="328.5" y="-229.8" font-family="Times,serif" font-size="14.00" fill="#000000">ErrorComponent </text>
</g>
<!-- MiscModule&#45;&gt;ErrorComponent  -->
<g id="edge4" class="edge">
<title>MiscModule&#45;&gt;ErrorComponent </title>
<path fill="none" stroke="#000000" stroke-dasharray="5,2" d="M288.2944,-187.1061C288.2944,-187.1061 288.2944,-205.991 288.2944,-205.991"/>
<polygon fill="#000000" stroke="#000000" points="284.7944,-205.9909 288.2944,-215.991 291.7944,-205.991 284.7944,-205.9909"/>
</g>
<!-- SpinnerComponent  -->
<g id="node6" class="node">
<title>SpinnerComponent </title>
<polygon fill="#fb8072" stroke="#000000" points="253.8814,-252 125.1186,-252 125.1186,-216 253.8814,-216 253.8814,-252"/>
<text text-anchor="middle" x="189.5" y="-229.8" font-family="Times,serif" font-size="14.00" fill="#000000">SpinnerComponent </text>
</g>
<!-- MiscModule&#45;&gt;SpinnerComponent  -->
<g id="edge5" class="edge">
<title>MiscModule&#45;&gt;SpinnerComponent </title>
<path fill="none" stroke="#000000" stroke-dasharray="5,2" d="M235.7092,-187.1061C235.7092,-187.1061 235.7092,-205.991 235.7092,-205.991"/>
<polygon fill="#000000" stroke="#000000" points="232.2092,-205.9909 235.7092,-215.991 239.2092,-205.991 232.2092,-205.9909"/>
</g>
<!-- MiscRoutingModule -->
<g id="node4" class="node">
<title>MiscRoutingModule</title>
<polygon fill="#8dd3c7" stroke="#000000" points="175.6624,-122 172.6624,-126 151.6624,-126 148.6624,-122 43.3376,-122 43.3376,-86 175.6624,-86 175.6624,-122"/>
<text text-anchor="middle" x="109.5" y="-99.8" font-family="Times,serif" font-size="14.00" fill="#000000">MiscRoutingModule</text>
</g>
<!-- MiscRoutingModule&#45;&gt;MiscModule -->
<g id="edge3" class="edge">
<title>MiscRoutingModule&#45;&gt;MiscModule</title>
<path fill="none" stroke="#000000" d="M150.5703,-122.1061C150.5703,-141.3391 150.5703,-169 150.5703,-169 150.5703,-169 207.6576,-169 207.6576,-169"/>
<polygon fill="#000000" stroke="#000000" points="207.6577,-172.5001 217.6576,-169 207.6576,-165.5001 207.6577,-172.5001"/>
</g>
</g>
</svg>
